<svg width="294" height="207" viewBox="0 0 294 207" fill="none" xmlns="http://www.w3.org/2000/svg">
<g filter="url(#filter0_d_41_5)">
<path d="M20 190.75H64L111.875 113.75L128.25 125.5V190.75H167V8H128.25V91.625C125.667 88.0417 123.125 84.4583 120.625 80.875C118.125 77.2917 115.583 73.7083 113 70.125L63.5 8H20.5L84.25 88.875L20 190.75Z" fill="black"/>
<path d="M181.25 8C197.833 8 211.5 10 222.25 14C233.083 18 241.125 24.0417 246.375 32.125C251.625 40.2083 254.25 50.4167 254.25 62.75C254.25 71.0833 252.667 78.375 249.5 84.625C246.333 90.875 242.167 96.1667 237 100.5C231.833 104.833 226.25 108.375 220.25 111.125L274 190.75H231L187.375 120.625H166.75V190.75H128V8H181.25ZM178.5 39.75H166.75V89.125H179.25C192.083 89.125 201.25 87 206.75 82.75C212.333 78.4167 215.125 72.0833 215.125 63.75C215.125 55.0833 212.125 48.9167 206.125 45.25C200.208 41.5833 191 39.75 178.5 39.75Z" fill="black"/>
<path d="M16.6167 188.616L12.7482 194.75H20H64H66.2231L67.3969 192.862L113.015 119.491L124 127.374V190.75V194.75H124.25H128H128.25H166.75H167H170.75H171V190.75V124.625H185.153L227.604 192.863L228.778 194.75H231H274H281.526L277.315 188.512L226.123 112.676C230.875 110.136 235.358 107.098 239.57 103.565C245.167 98.8706 249.667 93.1457 253.068 86.4329C256.568 79.5258 258.25 71.5933 258.25 62.75C258.25 49.8576 255.504 38.8372 249.73 29.9463C243.923 21.0062 235.115 14.4867 223.639 10.2489C212.292 6.02801 198.113 4 181.25 4H171H167H128.25H128H124.25H124V8V78.7217C123.968 78.6765 123.937 78.6314 123.906 78.5863C121.394 74.9858 118.84 71.3857 116.245 67.7858L116.188 67.7077L116.128 67.6324L66.6284 5.50737L65.4273 4H63.5H20.5H12.2537L17.3586 10.4762L79.3591 89.1317L16.6167 188.616ZM179.25 85.125H171V43.75H178.5C190.767 43.75 199.061 45.578 204.018 48.65L204.029 48.6566L204.039 48.6631C208.562 51.4269 211.125 56.1017 211.125 63.75C211.125 71.0957 208.724 76.1543 204.298 79.5895C199.881 82.9992 191.846 85.125 179.25 85.125Z" stroke="#51AAE2" stroke-width="8"/>
</g>
<defs>
<filter id="filter0_d_41_5" x="0.0078125" y="0" width="293.045" height="206.75" filterUnits="userSpaceOnUse" color-interpolation-filters="sRGB">
<feFlood flood-opacity="0" result="BackgroundImageFix"/>
<feColorMatrix in="SourceAlpha" type="matrix" values="0 0 0 0 0 0 0 0 0 0 0 0 0 0 0 0 0 0 127 0" result="hardAlpha"/>
<feOffset dy="4"/>
<feGaussianBlur stdDeviation="2"/>
<feComposite in2="hardAlpha" operator="out"/>
<feColorMatrix type="matrix" values="0 0 0 0 0 0 0 0 0 0 0 0 0 0 0 0 0 0 0.25 0"/>
<feBlend mode="normal" in2="BackgroundImageFix" result="effect1_dropShadow_41_5"/>
<feBlend mode="normal" in="SourceGraphic" in2="effect1_dropShadow_41_5" result="shape"/>
</filter>
</defs>
</svg>
